<svg width="24" height="24" viewBox="0 0 24 24" fill="none" xmlns="http://www.w3.org/2000/svg">
<path fill-rule="evenodd" clip-rule="evenodd" d="M6 4C6 3.44772 6.33579 3 6.75 3H9.75C10.1642 3 10.5 3.44772 10.5 4V20C10.5 20.5523 10.1642 21 9.75 21H6.75C6.33579 21 6 20.5523 6 20V4Z" fill="#8B8E97"/>
<path fill-rule="evenodd" clip-rule="evenodd" d="M13.5 4C13.5 3.44772 13.8358 3 14.25 3H17.25C17.6642 3 18 3.44772 18 4V20C18 20.5523 17.6642 21 17.25 21H14.25C13.8358 21 13.5 20.5523 13.5 20V4Z" fill="#8B8E97"/>
</svg>
