<svg width="24" height="24" viewBox="0 0 24 24" fill="none" xmlns="http://www.w3.org/2000/svg">
<path fill-rule="evenodd" clip-rule="evenodd" d="M1.68083 4.17326C1.34514 3.95746 0.91842 3.94218 0.568158 4.13341C0.217897 4.32463 0 4.69185 0 5.09091V18.1818C0 18.5809 0.217897 18.9481 0.568158 19.1393C0.91842 19.3306 1.34514 19.3153 1.68083 19.0995L11.6364 12.6995V18.1818C11.6364 18.5809 11.8543 18.9481 12.2045 19.1393C12.5548 19.3306 12.9815 19.3153 13.3172 19.0995L23.499 12.554C23.8113 12.3533 24 12.0076 24 11.6364C24 11.2652 23.8113 10.9194 23.499 10.7187L13.3172 4.17326C12.9815 3.95746 12.5548 3.94218 12.2045 4.13341C11.8543 4.32463 11.6364 4.69185 11.6364 5.09091V10.5732L1.68083 4.17326Z" fill="#8B8E97"/>
</svg>
